<svg aria-hidden="true" style="position: absolute; width: 0; height: 0; overflow: hidden;" version="1.1" xmlns="http://www.w3.org/2000/svg" xmlns:xlink="http://www.w3.org/1999/xlink">
<defs>
<symbol id="build" viewBox="0 0 32 32">
<path fill="#84829a" style="fill: var(--color1, #84829a)" d="M0.533 30.933h3.2v-17.6c0-0.295 0.239-0.533 0.533-0.533h7.467v-12.267c0-0.295 0.239-0.533 0.533-0.533h13.867c0.294 0 0.533 0.239 0.533 0.533v30.4h4.8c0.295 0 0.533 0.239 0.533 0.533s-0.239 0.533-0.533 0.533h-30.933c-0.295 0-0.533-0.239-0.533-0.533s0.239-0.533 0.533-0.533zM20.8 30.933h2.133v-4.8c0-0.295-0.239-0.533-0.533-0.533h-1.067c-0.295 0-0.533 0.239-0.533 0.533v4.8zM18.667 13.333v17.6h1.067v-4.8c0-0.884 0.716-1.6 1.6-1.6h1.067c0.884 0 1.6 0.716 1.6 1.6v4.8h1.6v-29.867h-12.8v11.733h5.333c0.295 0 0.533 0.239 0.533 0.533zM4.8 30.933h12.8v-17.067h-12.8v17.067z"></path>
<path fill="#84829a" style="fill: var(--color1, #84829a)" d="M14.933 7.467h3.2c0.295 0 0.533 0.239 0.533 0.533v3.2c0 0.295-0.239 0.533-0.533 0.533h-3.2c-0.295 0-0.533-0.239-0.533-0.533v-3.2c0-0.295 0.239-0.533 0.533-0.533zM15.466 10.667h2.133v-2.133h-2.133v2.133z"></path>
<path fill="#84829a" style="fill: var(--color1, #84829a)" d="M14.933 2.133h3.2c0.295 0 0.533 0.239 0.533 0.533v3.2c0 0.295-0.239 0.533-0.533 0.533h-3.2c-0.295 0-0.533-0.239-0.533-0.533v-3.2c0-0.295 0.239-0.533 0.533-0.533zM15.466 5.333h2.133v-2.133h-2.133v2.133z"></path>
<path fill="#84829a" style="fill: var(--color1, #84829a)" d="M20.267 7.467h3.2c0.295 0 0.533 0.239 0.533 0.533v3.2c0 0.295-0.239 0.533-0.533 0.533h-3.2c-0.294 0-0.533-0.239-0.533-0.533v-3.2c0-0.295 0.239-0.533 0.533-0.533zM20.8 10.667h2.133v-2.133h-2.133v2.133z"></path>
<path fill="#84829a" style="fill: var(--color1, #84829a)" d="M20.267 2.133h3.2c0.295 0 0.533 0.239 0.533 0.533v3.2c0 0.295-0.239 0.533-0.533 0.533h-3.2c-0.294 0-0.533-0.239-0.533-0.533v-3.2c0-0.295 0.239-0.533 0.533-0.533zM20.8 5.333h2.133v-2.133h-2.133v2.133z"></path>
<path fill="#84829a" style="fill: var(--color1, #84829a)" d="M20.267 12.8h3.2c0.295 0 0.533 0.239 0.533 0.533v3.2c0 0.295-0.239 0.533-0.533 0.533h-3.2c-0.294 0-0.533-0.239-0.533-0.533v-3.2c0-0.295 0.239-0.533 0.533-0.533zM20.8 16h2.133v-2.133h-2.133v2.133z"></path>
<path fill="#84829a" style="fill: var(--color1, #84829a)" d="M20.267 18.133h3.2c0.295 0 0.533 0.239 0.533 0.533v3.2c0 0.295-0.239 0.533-0.533 0.533h-3.2c-0.294 0-0.533-0.239-0.533-0.533v-3.2c0-0.295 0.239-0.533 0.533-0.533zM20.8 21.333h2.133v-2.133h-2.133v2.133z"></path>
<path fill="#84829a" style="fill: var(--color1, #84829a)" d="M10.133 24.533h-3.2c-0.295 0-0.533-0.239-0.533-0.533v-3.2c0-0.295 0.239-0.533 0.533-0.533h3.2c0.295 0 0.533 0.239 0.533 0.533v3.2c0 0.294-0.239 0.533-0.533 0.533zM9.6 21.333h-2.133v2.133h2.133v-2.133z"></path>
<path fill="#84829a" style="fill: var(--color1, #84829a)" d="M10.133 19.2h-3.2c-0.295 0-0.533-0.239-0.533-0.533v-3.2c0-0.295 0.239-0.533 0.533-0.533h3.2c0.295 0 0.533 0.239 0.533 0.533v3.2c0 0.295-0.239 0.533-0.533 0.533zM9.6 16h-2.133v2.133h2.133v-2.133z"></path>
<path fill="#84829a" style="fill: var(--color1, #84829a)" d="M10.133 29.867h-3.2c-0.295 0-0.533-0.239-0.533-0.533v-3.2c0-0.295 0.239-0.533 0.533-0.533h3.2c0.295 0 0.533 0.239 0.533 0.533v3.2c0 0.295-0.239 0.533-0.533 0.533zM9.6 26.667h-2.133v2.133h2.133v-2.133z"></path>
<path fill="#84829a" style="fill: var(--color1, #84829a)" d="M15.467 24.533h-3.2c-0.295 0-0.533-0.239-0.533-0.533v-3.2c0-0.295 0.239-0.533 0.533-0.533h3.2c0.295 0 0.533 0.239 0.533 0.533v3.2c0 0.294-0.239 0.533-0.533 0.533zM14.933 21.333h-2.133v2.133h2.133v-2.133z"></path>
<path fill="#84829a" style="fill: var(--color1, #84829a)" d="M15.467 19.2h-3.2c-0.295 0-0.533-0.239-0.533-0.533v-3.2c0-0.295 0.239-0.533 0.533-0.533h3.2c0.295 0 0.533 0.239 0.533 0.533v3.2c0 0.295-0.239 0.533-0.533 0.533zM14.933 16h-2.133v2.133h2.133v-2.133z"></path>
<path fill="#84829a" style="fill: var(--color1, #84829a)" d="M15.467 29.867h-3.2c-0.295 0-0.533-0.239-0.533-0.533v-3.2c0-0.295 0.239-0.533 0.533-0.533h3.2c0.295 0 0.533 0.239 0.533 0.533v3.2c0 0.295-0.239 0.533-0.533 0.533zM14.933 26.667h-2.133v2.133h2.133v-2.133z"></path>
</symbol>
<symbol id="leaf" viewBox="0 0 32 32">
<path fill="#84829a" style="fill: var(--color1, #84829a)" d="M31.21 0.345c-0.843-0.247-21.467-2.3-28.71 7.485-3.208 4.335-3.256 10.278-0.161 17.661-0.785 1.63-1.473 3.346-2.033 5.158-0.17 0.55 0.138 1.134 0.688 1.304 0.102 0.032 0.206 0.047 0.309 0.047 0.445 0 0.857-0.287 0.995-0.734 5.521-17.848 23.461-26.482 28.962-28.664 0.536-0.212 1.251-1.876-0.050-2.257z"></path>
<path fill="#84829a" style="fill: var(--color1, #84829a)" d="M5.65 27.725c2.986 1.253 5.972 1.895 8.748 1.895 2.496 0 4.823-0.513 6.828-1.554 4.036-2.094 6.503-6.099 7.133-11.583 0.642-5.59 1.44-9.091 2.107-11.232-5.932 2.736-18.652 9.829-24.816 22.475z"></path>
</symbol>
<symbol id="map" viewBox="0 0 32 32">
<path fill="#84829a" style="fill: var(--color1, #84829a)" d="M30.859 0c-0.178-0-0.353 0.041-0.512 0.121l-8.66 4.331-9.793-4.353c-0.016-0.007-0.034-0.008-0.051-0.015-0.044-0.016-0.089-0.030-0.135-0.041-0.045-0.012-0.092-0.022-0.138-0.029-0.093-0.008-0.186-0.008-0.279 0-0.047 0.007-0.093 0.016-0.138 0.029-0.046 0.011-0.091 0.025-0.135 0.041-0.017 0.007-0.035 0.008-0.051 0.015l-10.286 4.571c-0.413 0.183-0.679 0.593-0.679 1.045v25.142c0 0.387 0.196 0.747 0.52 0.958s0.733 0.244 1.087 0.087l9.822-4.366 9.822 4.366c0.017 0.007 0.035 0 0.053 0.010 0.277 0.124 0.594 0.117 0.865-0.019 0.018-0.008 0.039 0 0.057-0.013l9.143-4.571c0.387-0.194 0.632-0.59 0.632-1.023v-25.142c0-0.631-0.511-1.143-1.142-1.143zM10.288 25.543l-8 3.555v-22.641l8-3.555v22.641zM20.573 29.098l-8-3.555v-22.641l8 3.555v22.641zM29.716 25.58l-6.857 3.428v-22.587l6.857-3.429v22.587z"></path>
</symbol>
<symbol id="share" viewBox="0 0 32 32">
<path fill="#84829a" style="fill: var(--color1, #84829a)" d="M28.213 2.84l-14.44 14.493c-0.166-0.096-0.34-0.176-0.52-0.24l-9.533-3.227c-0.288-0.072-0.544-0.239-0.727-0.473s-0.282-0.523-0.282-0.82c0-0.297 0.099-0.586 0.282-0.82s0.439-0.401 0.727-0.473l23.653-8.413c0.154-0.053 0.317-0.080 0.48-0.080 0.122-0.002 0.244 0.016 0.36 0.053z"></path>
<path fill="#84829a" style="fill: var(--color1, #84829a)" d="M29.134 4.627l-8.413 23.68c-0.093 0.276-0.273 0.514-0.514 0.678s-0.529 0.244-0.819 0.229c-0.294 0.014-0.584-0.071-0.826-0.24s-0.42-0.413-0.508-0.694l-3.173-9.533c-0.064-0.18-0.144-0.354-0.24-0.52l14.52-14.44c0.082 0.276 0.073 0.57-0.026 0.84z"></path>
</symbol>
</defs>
</svg>
