<svg aria-hidden="true" style="position: absolute; width: 0; height: 0; overflow: hidden;" version="1.1" xmlns="http://www.w3.org/2000/svg" xmlns:xlink="http://www.w3.org/1999/xlink">
<defs>
<symbol id="customization" viewBox="0 0 37 32">
<path fill="#fff1da" style="fill: var(--color1, #fff1da)" d="M13.091 23.273c0 4.82 3.907 8.727 8.727 8.727h13.091c1.339 0 2.424-1.085 2.424-2.424v-16.485c0-2.678-2.171-4.848-4.849-4.848h-16.97c-1.339 0-2.424 1.085-2.424 2.424v12.606z"></path>
<path fill="#b6c4cf" style="fill: var(--color2, #b6c4cf)" d="M24.242 13.502v-2.762c0-0.541-0.439-0.98-0.98-0.98h-1.056c-0.422 0-0.797-0.271-0.93-0.672-0.148-0.447-0.328-0.879-0.536-1.294-0.19-0.378-0.117-0.835 0.182-1.134l0.747-0.747c0.383-0.383 0.383-1.004 0-1.386l-1.953-1.953c-0.383-0.383-1.004-0.383-1.386 0l-0.747 0.747c-0.299 0.299-0.756 0.372-1.134 0.182-0.415-0.209-0.847-0.388-1.294-0.536-0.401-0.133-0.672-0.508-0.672-0.93v-1.056c0-0.541-0.439-0.98-0.98-0.98h-2.762c-0.541 0-0.98 0.439-0.98 0.98v1.056c0 0.422-0.271 0.797-0.672 0.93-0.447 0.148-0.879 0.328-1.294 0.536-0.378 0.19-0.835 0.117-1.134-0.182l-0.747-0.747c-0.383-0.383-1.004-0.383-1.386 0l-1.953 1.953c-0.383 0.383-0.383 1.004 0 1.386l0.747 0.747c0.299 0.299 0.372 0.756 0.182 1.134-0.209 0.415-0.388 0.847-0.536 1.294-0.094 0.283-0.308 0.502-0.575 0.605-0.111 0.043-0.182 0.115-0.306 0.115h-1.056c-0.541 0-0.98 0.439-0.98 0.98v2.664c0 0.541 0.439 0.98 0.98 0.98h1.056c0.422 0 0.797 0.319 0.93 0.72 0.148 0.447 0.328 0.879 0.536 1.294 0.19 0.378 0.117 0.835-0.182 1.134l-0.699 0.747c-0.383 0.383-0.383 1.004 0 1.386l1.855 1.855c0.383 0.383 1.004 0.383 1.386 0l0.747-0.747c0.299-0.299 0.756-0.372 1.134-0.182 0.415 0.209 0.945 0.437 1.391 0.585 0.401 0.133 0.672 0.508 0.672 0.93v1.056c0 0.541 0.439 0.98 0.98 0.98h2.616c0.541 0 0.98-0.439 0.98-0.98v-1.056c0-0.124 0.072-0.195 0.115-0.306 0.104-0.267 0.322-0.482 0.605-0.575 0.447-0.148 0.879-0.328 1.294-0.536 0.378-0.19 0.835-0.117 1.134 0.182l0.747 0.747c0.383 0.383 1.004 0.383 1.386 0l1.953-1.953c0.383-0.383 0.383-1.004 0-1.386l-0.747-0.747c-0.299-0.299-0.372-0.756-0.182-1.134 0.209-0.415 0.388-0.847 0.536-1.294 0.133-0.401 0.508-0.672 0.93-0.672h1.056c0.541 0 0.98-0.439 0.98-0.98z"></path>
<path fill="#9facba" style="fill: var(--color3, #9facba)" d="M14.549 21.851c-0.043 0.111-0.066 0.231-0.066 0.355v1.056c0 0.541-0.439 0.98-0.98 0.98h-2.762c-0.541 0-0.98-0.439-0.98-0.98v-1.056c0-0.422-0.271-0.798-0.672-0.93-0.446-0.148-0.879-0.327-1.294-0.536-0.378-0.19-0.835-0.118-1.134 0.181l-0.747 0.747c-0.383 0.383-1.004 0.383-1.387 0l-1.953-1.953c-0.382-0.383-0.382-1.004 0-1.387l0.748-0.747c0.299-0.299 0.372-0.756 0.181-1.134-0.209-0.415-0.388-0.847-0.536-1.294-0.133-0.401-0.508-0.672-0.93-0.672h-1.056c-0.541 0-0.98-0.439-0.98-0.98v-2.762c0-0.541 0.439-0.98 0.98-0.98h1.056c0.124 0 0.244-0.023 0.355-0.066-0.001 0.061-0.001 0.122-0.001 0.184 0 6.614 5.362 11.975 11.975 11.975 0.061 0 0.123-0 0.184-0.001z"></path>
<path fill="#9facba" style="fill: var(--color3, #9facba)" d="M12.121 20.169c4.445 0 8.048-3.603 8.048-8.048s-3.603-8.048-8.048-8.048c-4.445 0-8.048 3.603-8.048 8.048s3.603 8.048 8.048 8.048z"></path>
<path fill="#f8f7f7" style="fill: var(--color4, #f8f7f7)" d="M12.121 18.462c3.502 0 6.341-2.839 6.341-6.341s-2.839-6.341-6.341-6.341c-3.502 0-6.341 2.839-6.341 6.341s2.839 6.341 6.341 6.341z"></path>
</symbol>
<symbol id="sattelite" viewBox="0 0 38 32">
<path fill="#fff1da" style="fill: var(--color1, #fff1da)" d="M37.744 24.615c0 4.078-3.306 7.385-7.385 7.385h-11.077c-1.133 0-2.051-0.918-2.051-2.051v-13.949c0-2.266 1.837-4.103 4.103-4.103h14.359c1.133 0 2.051 0.918 2.051 2.051v10.667z"></path>
<path fill="#407093" style="fill: var(--color5, #407093)" d="M9.652 20.783l-0.775-0.371-4.602 6.804h5.136l0.495-0.323v-5.878l-0.254-0.233z"></path>
<path fill="#365e7d" style="fill: var(--color6, #365e7d)" d="M8.948 20.445l-1.742-0.834h-0.328l-4.925 7.281 0.293 0.323h2.122l4.579-6.77z"></path>
<path fill="#4a80aa" style="fill: var(--color7, #4a80aa)" d="M10.831 26.893h-6.791c-0.308 0-0.559 0.25-0.559 0.559v0.708c0 0.308 0.25 0.558 0.558 0.559h6.791c0.309 0 0.559-0.25 0.559-0.559v-0.708c0-0.309-0.25-0.559-0.559-0.559z"></path>
<path fill="#407093" style="fill: var(--color5, #407093)" d="M3.597 28.159v-0.708c0-0.308 0.25-0.559 0.559-0.559h-3.597c-0.308 0-0.559 0.25-0.559 0.559v0.708c0 0.308 0.25 0.559 0.559 0.559h3.597c-0.308 0-0.559-0.25-0.559-0.559z"></path>
<path fill="#4a80aa" style="fill: var(--color7, #4a80aa)" d="M8.714 16.403c-0.209 0.431-0.327 0.915-0.327 1.426 0 1.398 0.875 2.59 2.107 3.062 0.529-0.166 0.999-0.465 1.37-0.858v-0.714l-3.15-2.916z"></path>
<path fill="#407093" style="fill: var(--color5, #407093)" d="M8.442 17.841c0-0.5 0.116-0.972 0.32-1.393l-1.007-0.932h-0.409c-0.618 0.583-1.004 1.409-1.004 2.325 0 1.765 1.431 3.196 3.196 3.196 0.368 0 0.72-0.063 1.049-0.177-1.249-0.435-2.146-1.622-2.146-3.019z"></path>
<path fill="#ffd086" style="fill: var(--color8, #ffd086)" d="M27 0.379c-0.506-0.506-1.326-0.506-1.832 0l-1.236 1.236v0.157l1.543 1.608 0.289 0.067 1.236-1.236c0.506-0.506 0.506-1.326 0-1.832z"></path>
<path fill="#ffc365" style="fill: var(--color9, #ffc365)" d="M27.341 0.991c-0.054-0.224-0.167-0.437-0.342-0.611-0.506-0.506-1.326-0.506-1.832 0l-1.236 1.236v0.157l0.818 0.853c0.488-0.507 0.972-1.008 1.221-1.257 0.415-0.415 1.021-0.418 1.371-0.377z"></path>
<path fill="#365e7d" style="fill: var(--color6, #365e7d)" d="M22.768 3.672c-0.014 0-0.029-0.001-0.043-0.002l-14.284-1.406c-0.238-0.023-0.412-0.236-0.389-0.474s0.236-0.412 0.474-0.389l14.284 1.406c0.238 0.023 0.412 0.236 0.389 0.474-0.022 0.224-0.211 0.391-0.431 0.391z"></path>
<path fill="#407093" style="fill: var(--color5, #407093)" d="M12.573 6.346c-0.192 0-0.368-0.129-0.419-0.324-0.061-0.232 0.078-0.468 0.309-0.529l10.195-2.674c0.232-0.061 0.468 0.078 0.529 0.309s-0.078 0.468-0.309 0.529l-10.195 2.674c-0.037 0.010-0.074 0.014-0.11 0.014z"></path>
<path fill="#365e7d" style="fill: var(--color6, #365e7d)" d="M25.537 19.338c-0.22 0-0.409-0.167-0.431-0.391l-1.397-14.292c-0.023-0.238 0.151-0.45 0.389-0.474 0.238-0.022 0.45 0.151 0.473 0.389l1.397 14.292c0.023 0.238-0.151 0.45-0.389 0.474-0.014 0.001-0.029 0.002-0.043 0.002z"></path>
<path fill="#407093" style="fill: var(--color5, #407093)" d="M21.426 15.281c-0.037 0-0.074-0.005-0.111-0.015-0.231-0.061-0.369-0.299-0.308-0.53l2.713-10.234c0.061-0.231 0.299-0.369 0.53-0.308s0.369 0.299 0.308 0.53l-2.713 10.234c-0.051 0.194-0.227 0.322-0.419 0.322z"></path>
<path fill="#ffc365" style="fill: var(--color9, #ffc365)" d="M22.69 2.857l1.239-1.239 1.831 1.831-1.239 1.239-1.831-1.831z"></path>
<path fill="#ffa90f" style="fill: var(--color10, #ffa90f)" d="M23.631 3.793c0.298-0.312 0.763-0.798 1.213-1.266l-0.912-0.912-1.239 1.239 0.938 0.938z"></path>
<path fill="#4a80aa" style="fill: var(--color7, #4a80aa)" d="M24.8 5.396c-0.111 0-0.222-0.042-0.306-0.127l-2.383-2.383c-0.169-0.169-0.169-0.444 0-0.613s0.444-0.169 0.613 0l2.383 2.383c0.169 0.169 0.169 0.444 0 0.613-0.085 0.085-0.196 0.127-0.306 0.127z"></path>
<path fill="#b5dcff" style="fill: var(--color11, #b5dcff)" d="M25.080 20.118l-14.511-14.637c-1.924 4.343-2.258 9.006-0.818 13.026 3.978 3.588 9.919 4.139 15.39 1.884l-0.061-0.273z"></path>
<path fill="#8bcaff" style="fill: var(--color12, #8bcaff)" d="M10.646 5.559l-3.325-3.354-0.333 0.033c-2.342 5.681-1.658 11.871 2.311 15.841 0.24 0.24 0.489 0.469 0.745 0.685-1.673-4.016-1.402-8.792 0.601-13.205z"></path>
<path fill="#dbedff" style="fill: var(--color13, #dbedff)" d="M26.406 19.078l-14.717-14.717c-0.145 0.022-0.284 0.088-0.396 0.2l-0.64 0.64c-0.137 0.137-0.206 0.317-0.208 0.497l14.671 14.671c0.218 0.218 0.572 0.218 0.79 0l0.501-0.5c0.218-0.218 0.218-0.572-0-0.79z"></path>
<path fill="#b5dcff" style="fill: var(--color11, #b5dcff)" d="M10.675 5.211l0.627-0.627c0.115-0.115 0.261-0.182 0.412-0.199l-3.412-3.412c-0.218-0.218-0.572-0.218-0.79 0l-0.5 0.501c-0.218 0.218-0.218 0.572 0 0.79l3.46 3.46c-0.005-0.185 0.063-0.371 0.204-0.512z"></path>
</symbol>
<symbol id="plane" viewBox="0 0 35 32">
<path fill="#fff1da" style="fill: var(--color1, #fff1da)" d="M9.934 15.169c0 2.066 1.675 3.74 3.74 3.74h5.61c0.574 0 1.039-0.465 1.039-1.039v-7.065c0-1.148-0.93-2.078-2.078-2.078h-7.273c-0.574 0-1.039 0.465-1.039 1.039v5.403z"></path>
<path fill="#d5d6db" style="fill: var(--color14, #d5d6db)" d="M20.029 18.066c-0.282 0.063-0.557 0.18-0.808 0.344-0.653 0.416-1.032 1.009-0.848 1.326s0.863 0.235 1.515-0.18c0.254-0.158 0.479-0.36 0.663-0.593 0.085-0.113 0.1-0.253 0.039-0.358l-0.239-0.411c-0.061-0.105-0.187-0.155-0.322-0.128z"></path>
<path fill="#d5d6db" style="fill: var(--color14, #d5d6db)" d="M18.39 12.457c-0.205 0.046-0.404 0.131-0.586 0.249-0.473 0.301-0.749 0.732-0.615 0.961s0.626 0.17 1.099-0.131c0.184-0.114 0.348-0.261 0.481-0.43 0.062-0.082 0.073-0.183 0.028-0.259l-0.173-0.298c-0.044-0.076-0.136-0.113-0.233-0.093z"></path>
<path fill="#029bc5" style="fill: var(--color15, #029bc5)" d="M15.727 12.692c-0.046-0.005-0.094 0.007-0.136 0.034l-1.111 0.708c-0.093 0.059-0.13 0.173-0.083 0.254 0.011 0.019 0.026 0.035 0.043 0.047l2.739 1.888 3.706-2.361-5.158-0.569z"></path>
<path fill="#e1e6e9" style="fill: var(--color16, #e1e6e9)" d="M27.442 12.425l-10.085 6.348-5.966 2.374-3.043 0.605-0.335-0.569 16.809-10.379c0.501-0.311 1.059-0.501 1.618-0.553 0.245-0.021 0.486-0.013 0.719 0.024 0.207 0.031 0.402 0.092 0.582 0.179 0.2 0.099 0.582 0.111 0.705 0.309 0-0 0.292 0.909-1.005 1.66z"></path>
<path fill="#029bc5" style="fill: var(--color15, #029bc5)" d="M17.491 17.933l-4.363 6.955c-0.055 0.098-0.022 0.207 0.072 0.244 0.058 0.023 0.129 0.014 0.188-0.024l1.11-0.704c0.214-0.136 0.403-0.308 0.556-0.506l8.461-9.947-6.024 3.982z"></path>
<path fill="#029bc5" style="fill: var(--color15, #029bc5)" d="M6.482 17.701c-0.073-0.025-0.159-0.012-0.232 0.035l-0.918 0.585c-0.125 0.080-0.175 0.233-0.111 0.342 0.012 0.021 0.028 0.039 0.047 0.054l2.572 2.060 2.704-1.689-4.061-1.386z"></path>
<path fill="#029bc5" style="fill: var(--color15, #029bc5)" d="M8.701 21.147l-1.384 1.939c-0.020 0.028-0.016 0.063 0.011 0.078 0.019 0.011 0.045 0.009 0.066-0.005l0.858-0.544c0.007-0.004 0.013-0.010 0.018-0.016l2.023-2.459-1.59 1.007z"></path>
<path fill="#029bc5" style="fill: var(--color15, #029bc5)" d="M26.994 10.36c-0.24-0.039-0.489-0.047-0.741-0.025-0.245 0.343-0.402 0.728-0.455 1.118-0.004 0.078 0.059 0.134 0.141 0.126 0.025-0.003 0.051-0.012 0.073-0.026l1.581-1.007c-0.185-0.091-0.387-0.154-0.599-0.186z"></path>
<path fill="#d5d6db" style="fill: var(--color14, #d5d6db)" d="M23.549 12.211l1.032-0.652 0.961 1.635-1.032 0.652-0.961-1.635z"></path>
<path fill="#3a556a" style="fill: var(--color17, #3a556a)" d="M22.9 12.858c-0.124 0.079-0.174 0.23-0.111 0.338l0.102 0.175c0.067 0.105 0.221 0.124 0.343 0.041 0.116-0.079 0.163-0.221 0.107-0.327l-0.102-0.175c-0.063-0.108-0.215-0.132-0.339-0.053z"></path>
<path fill="#3a556a" style="fill: var(--color17, #3a556a)" d="M21.972 13.434c-0.124 0.079-0.174 0.23-0.111 0.338l0.102 0.175c0.067 0.105 0.221 0.124 0.343 0.041 0.116-0.079 0.163-0.221 0.107-0.327l-0.102-0.175c-0.063-0.108-0.215-0.132-0.339-0.053z"></path>
<path fill="#3a556a" style="fill: var(--color17, #3a556a)" d="M21.044 14.010c-0.124 0.079-0.174 0.23-0.111 0.338l0.102 0.175c0.067 0.105 0.221 0.124 0.343 0.041 0.116-0.079 0.163-0.221 0.107-0.327l-0.102-0.175c-0.063-0.108-0.215-0.132-0.34-0.053z"></path>
<path fill="#3a556a" style="fill: var(--color17, #3a556a)" d="M20.117 14.586c-0.124 0.079-0.174 0.23-0.111 0.338l0.102 0.175c0.067 0.105 0.221 0.124 0.343 0.041 0.116-0.079 0.163-0.221 0.107-0.327l-0.102-0.175c-0.063-0.108-0.215-0.132-0.34-0.053z"></path>
<path fill="#3a556a" style="fill: var(--color17, #3a556a)" d="M19.189 15.162c-0.124 0.079-0.174 0.23-0.111 0.338l0.102 0.175c0.063 0.108 0.215 0.132 0.339 0.053s0.174-0.23 0.111-0.338l-0.102-0.175c-0.063-0.108-0.215-0.132-0.339-0.053-0 0-0 0-0 0z"></path>
<path fill="#3a556a" style="fill: var(--color17, #3a556a)" d="M18.262 15.738c-0.124 0.079-0.174 0.23-0.111 0.338l0.102 0.175c0.063 0.108 0.215 0.132 0.339 0.053s0.174-0.23 0.111-0.338l-0.102-0.175c-0.063-0.108-0.215-0.132-0.339-0.053-0 0-0 0-0 0z"></path>
<path fill="#3a556a" style="fill: var(--color17, #3a556a)" d="M17.334 16.314c-0.124 0.079-0.174 0.23-0.111 0.338l0.102 0.175c0.063 0.108 0.215 0.131 0.34 0.052s0.174-0.23 0.111-0.337l-0.102-0.175c-0.063-0.108-0.215-0.132-0.339-0.053z"></path>
<path fill="#3a556a" style="fill: var(--color17, #3a556a)" d="M16.406 16.891c-0.124 0.079-0.174 0.23-0.111 0.338l0.102 0.175c0.063 0.108 0.215 0.131 0.34 0.052s0.174-0.23 0.111-0.337l-0.102-0.175c-0.063-0.108-0.215-0.132-0.339-0.053z"></path>
<path fill="#3a556a" style="fill: var(--color17, #3a556a)" d="M15.478 17.467c-0.124 0.079-0.174 0.23-0.111 0.338l0.102 0.175c0.063 0.108 0.215 0.131 0.339 0.052s0.174-0.23 0.111-0.337l-0.102-0.175c-0.063-0.108-0.215-0.132-0.339-0.053z"></path>
<path fill="#3a556a" style="fill: var(--color17, #3a556a)" d="M14.55 18.043c-0.124 0.079-0.174 0.23-0.111 0.338l0 0 0.102 0.175c0.063 0.108 0.215 0.131 0.339 0.052s0.174-0.23 0.111-0.337l-0.102-0.175c-0.063-0.108-0.215-0.132-0.339-0.053z"></path>
<path fill="#3a556a" style="fill: var(--color17, #3a556a)" d="M13.623 18.619c-0.124 0.079-0.174 0.23-0.111 0.338l0 0 0.102 0.175c0.063 0.108 0.215 0.131 0.339 0.052s0.174-0.23 0.111-0.337l-0.102-0.175c-0.063-0.108-0.215-0.132-0.339-0.053z"></path>
</symbol>
</defs>
</svg>
