<svg aria-hidden="true" style="position: absolute; width: 0; height: 0; overflow: hidden;" version="1.1" xmlns="http://www.w3.org/2000/svg" xmlns:xlink="http://www.w3.org/1999/xlink">
<defs>
<symbol id="car" viewBox="0 0 31 32">
<path fill="#006380" style="fill: var(--color1, #006380)" d="M8.667 0h14c4.786 0 8.667 3.88 8.667 8.667v14.667c0 4.786-3.88 8.667-8.667 8.667h-14c-4.786 0-8.667-3.88-8.667-8.667v-14.667c0-4.786 3.88-8.667 8.667-8.667z"></path>
<path fill="#fff" style="fill: var(--color2, #fff)" d="M11 17.417c-0.198 0-0.391 0.059-0.556 0.169s-0.293 0.266-0.368 0.449c-0.076 0.183-0.096 0.384-0.057 0.578s0.134 0.372 0.274 0.512c0.14 0.14 0.318 0.235 0.512 0.274s0.395 0.019 0.578-0.057c0.183-0.076 0.339-0.204 0.449-0.368s0.169-0.358 0.169-0.556c0-0.265-0.105-0.52-0.293-0.707s-0.442-0.293-0.707-0.293zM11 18.917c-0.099 0-0.196-0.029-0.278-0.084s-0.146-0.133-0.184-0.224c-0.038-0.091-0.048-0.192-0.028-0.289s0.067-0.186 0.137-0.256 0.159-0.118 0.256-0.137c0.097-0.019 0.198-0.009 0.289 0.028s0.169 0.102 0.224 0.184c0.055 0.082 0.084 0.179 0.084 0.278 0 0.133-0.053 0.26-0.146 0.354s-0.221 0.146-0.354 0.146z"></path>
<path fill="#fff" style="fill: var(--color2, #fff)" d="M21 17.417c-0.198 0-0.391 0.059-0.556 0.169s-0.293 0.266-0.368 0.449c-0.076 0.183-0.096 0.384-0.057 0.578s0.134 0.372 0.274 0.512c0.14 0.14 0.318 0.235 0.512 0.274s0.395 0.019 0.578-0.057c0.183-0.076 0.339-0.204 0.449-0.368s0.169-0.358 0.169-0.556c0-0.265-0.105-0.52-0.293-0.707s-0.442-0.293-0.707-0.293zM21 18.917c-0.099 0-0.196-0.029-0.278-0.084s-0.146-0.133-0.184-0.224c-0.038-0.091-0.048-0.192-0.028-0.289s0.067-0.186 0.137-0.256c0.070-0.070 0.159-0.118 0.256-0.137s0.198-0.009 0.289 0.028c0.091 0.038 0.169 0.102 0.224 0.184s0.084 0.179 0.084 0.278c0 0.133-0.053 0.26-0.146 0.354s-0.221 0.146-0.354 0.146z"></path>
<path fill="#fff" style="fill: var(--color2, #fff)" d="M13.75 18.667h4.5v0.5h-4.5v-0.5z"></path>
<path fill="#fff" style="fill: var(--color2, #fff)" d="M13.75 17.667h4.5v0.5h-4.5v-0.5z"></path>
<path fill="#fff" style="fill: var(--color2, #fff)" d="M15.25 13.917h1.5v0.5h-1.5v-0.5z"></path>
<path fill="#fff" style="fill: var(--color2, #fff)" d="M23.5 16.167v-0.5c-0.001-0.199-0.080-0.389-0.22-0.53s-0.331-0.22-0.53-0.22h-0.99l-0.517-1.815-0.155-0.617c-0.041-0.162-0.134-0.306-0.266-0.409s-0.294-0.159-0.461-0.159h-2.11v-1c-0-0.132-0.053-0.259-0.147-0.353s-0.221-0.146-0.353-0.147h-3.5c-0.132 0-0.259 0.053-0.353 0.147s-0.146 0.221-0.147 0.353v1h-2.11c-0.167 0-0.33 0.056-0.461 0.159s-0.225 0.247-0.266 0.409l-0.152 0.615-0.52 1.818h-0.99c-0.199 0.001-0.389 0.080-0.53 0.22s-0.22 0.331-0.22 0.53v0.5c0 0.127 0.033 0.251 0.095 0.362s0.15 0.204 0.258 0.271c-0.226 0.232-0.353 0.543-0.353 0.868v3c0 0.105 0.023 0.209 0.066 0.304s0.106 0.181 0.184 0.251v0.945c0.001 0.199 0.080 0.389 0.22 0.53s0.331 0.22 0.53 0.22h2c0.199-0.001 0.389-0.080 0.53-0.22s0.22-0.331 0.22-0.53v-0.75h7.5v0.75c0.001 0.199 0.080 0.389 0.22 0.53s0.331 0.22 0.53 0.22h2c0.199-0.001 0.389-0.080 0.53-0.22s0.22-0.331 0.22-0.53v-0.945c0.078-0.070 0.141-0.155 0.184-0.251s0.066-0.199 0.066-0.304v-3c0-0.324-0.127-0.635-0.352-0.868 0.107-0.067 0.196-0.16 0.258-0.271s0.094-0.235 0.095-0.362zM14.25 10.917h3.5v1h-3.5v-1zM11.398 12.607c0.013-0.054 0.045-0.102 0.088-0.137s0.098-0.053 0.154-0.053h8.72c0.056 0 0.11 0.019 0.154 0.053s0.075 0.083 0.088 0.137l0.078 0.31h-9.36l0.078-0.31zM11.187 13.417h9.625l0.855 3h-7.19c-0.059-0.349-0.239-0.667-0.51-0.895s-0.613-0.354-0.968-0.354-0.697 0.126-0.968 0.354c-0.27 0.229-0.451 0.546-0.51 0.895h-1.19l0.855-3zM13.965 16.417h-1.93c0.055-0.215 0.179-0.405 0.354-0.541s0.39-0.21 0.611-0.21 0.436 0.074 0.611 0.21c0.175 0.136 0.299 0.326 0.354 0.541zM9 15.667c0-0.066 0.026-0.13 0.073-0.177s0.11-0.073 0.177-0.073h0.848l-0.285 1h-0.563c-0.066 0-0.13-0.026-0.177-0.073s-0.073-0.11-0.073-0.177v-0.5zM11.75 22.167c0 0.066-0.026 0.13-0.073 0.177s-0.11 0.073-0.177 0.073h-2c-0.066 0-0.13-0.026-0.177-0.073s-0.073-0.11-0.073-0.177v-0.75h2.5v0.75zM22.75 22.167c0 0.066-0.026 0.13-0.073 0.177s-0.11 0.073-0.177 0.073h-2c-0.066 0-0.13-0.026-0.177-0.073s-0.073-0.11-0.073-0.177v-0.75h2.5v0.75zM23 20.667c0 0.066-0.026 0.13-0.073 0.177s-0.11 0.073-0.177 0.073h-13.5c-0.066 0-0.13-0.026-0.177-0.073s-0.073-0.11-0.073-0.177v-0.25h14v0.25zM23 19.917h-14v-2.25c0.001-0.199 0.080-0.389 0.22-0.53s0.331-0.22 0.53-0.22h12.5c0.199 0.001 0.389 0.080 0.53 0.22s0.22 0.331 0.22 0.53v2.25zM23 16.167c0 0.066-0.026 0.13-0.073 0.177s-0.11 0.073-0.177 0.073h-0.563l-0.285-1h0.847c0.066 0 0.13 0.026 0.177 0.073s0.073 0.11 0.073 0.177v0.5z"></path>
</symbol>
<symbol id="rect" viewBox="0 0 31 32">
<path fill="#f0bb1f" style="fill: var(--color3, #f0bb1f)" d="M8.667 0h14c4.786 0 8.667 3.88 8.667 8.667v14.667c0 4.786-3.88 8.667-8.667 8.667h-14c-4.786 0-8.667-3.88-8.667-8.667v-14.667c0-4.786 3.88-8.667 8.667-8.667z"></path>
<path fill="#fff" style="fill: var(--color2, #fff)" d="M9.030 11.65c-0.198 0-0.359-0.162-0.363-0.359v-2.261c0-0.201 0.162-0.363 0.363-0.363h2.261c0.198 0 0.359 0.162 0.359 0.363v0.787h8.699v-0.787c0-0.198 0.162-0.359 0.359-0.363h2.261c0.198 0 0.359 0.162 0.363 0.363v2.261c0 0.198-0.162 0.359-0.363 0.359h-0.787v8.699h0.787c0.198 0 0.359 0.162 0.363 0.359v2.261c0 0.198-0.162 0.359-0.363 0.363h-2.261c-0.198 0-0.359-0.162-0.359-0.363v-0.787h-8.699v0.787c0 0.198-0.162 0.359-0.359 0.363h-2.261c-0.198 0-0.359-0.162-0.363-0.363v-2.261c0-0.198 0.162-0.359 0.363-0.359h0.787v-8.699h-0.787zM22.614 10.931v-1.546h-1.546v1.546h1.546zM21.069 22.614h1.546v-1.546h-1.546v1.546zM11.65 20.709v0.755h8.699v-0.755c0-0.198 0.162-0.359 0.359-0.359h0.755v-8.699h-0.755c-0.198 0-0.359-0.162-0.359-0.359v-0.755h-8.699v0.755c0 0.198-0.162 0.359-0.359 0.359h-0.755v8.699h0.755c0.198 0 0.359 0.162 0.359 0.359zM9.386 21.069v1.546h1.546v-1.546h-1.546zM10.931 10.931v-1.546h-1.546v1.546h1.546z"></path>
</symbol>
<symbol id="swim" viewBox="0 0 31 32">
<path fill="#f15a2b" style="fill: var(--color4, #f15a2b)" d="M8.667 0h14c4.786 0 8.667 3.88 8.667 8.667v14.667c0 4.786-3.88 8.667-8.667 8.667h-14c-4.786 0-8.667-3.88-8.667-8.667v-14.667c0-4.786 3.88-8.667 8.667-8.667z"></path>
<path fill="#fff" style="fill: var(--color2, #fff)" d="M21.879 21.286c-0.3 0.006-0.595-0.080-0.845-0.246-0.186-0.122-0.403-0.186-0.625-0.186s-0.44 0.065-0.626 0.186c-0.252 0.161-0.545 0.246-0.845 0.246s-0.592-0.085-0.845-0.246c-0.186-0.122-0.403-0.186-0.626-0.186s-0.44 0.065-0.626 0.186c-0.252 0.161-0.545 0.246-0.845 0.246s-0.592-0.085-0.845-0.246c-0.186-0.122-0.403-0.186-0.625-0.186s-0.439 0.065-0.625 0.186c-0.229 0.152-0.496 0.237-0.771 0.244l-0.015-0.432c0.203-0.005 0.4-0.069 0.567-0.185 0.252-0.161 0.545-0.246 0.844-0.246s0.592 0.085 0.844 0.246c0.186 0.122 0.403 0.186 0.626 0.186s0.44-0.065 0.626-0.186c0.252-0.161 0.546-0.246 0.845-0.246s0.592 0.085 0.845 0.246c0.186 0.122 0.403 0.186 0.625 0.186s0.44-0.065 0.626-0.186c0.252-0.161 0.545-0.246 0.845-0.246s0.592 0.085 0.845 0.246c0.186 0.122 0.404 0.187 0.627 0.187s0.441-0.065 0.627-0.187c0.25-0.166 0.544-0.252 0.843-0.246v0.432c-0.223-0.006-0.442 0.059-0.626 0.186-0.25 0.167-0.546 0.252-0.847 0.246z"></path>
<path fill="#fff" style="fill: var(--color2, #fff)" d="M10.119 21.286c-0.3 0.006-0.595-0.080-0.845-0.246-0.183-0.127-0.403-0.192-0.626-0.186v-0.432c0.3-0.006 0.595 0.080 0.845 0.246 0.183 0.127 0.402 0.193 0.626 0.186 0.223 0.006 0.442-0.059 0.626-0.187 0.249-0.166 0.544-0.252 0.843-0.246 0.292-0.007 0.58 0.075 0.825 0.235l-0.218 0.373c-0.179-0.12-0.391-0.182-0.607-0.176-0.222-0.006-0.441 0.059-0.623 0.186-0.25 0.167-0.545 0.253-0.846 0.247z"></path>
<path fill="#fff" style="fill: var(--color2, #fff)" d="M21.88 19.772c-0.3 0.006-0.595-0.080-0.845-0.246-0.186-0.122-0.404-0.186-0.626-0.186s-0.44 0.065-0.626 0.186c-0.252 0.161-0.545 0.246-0.845 0.246s-0.592-0.085-0.845-0.246c-0.186-0.122-0.403-0.186-0.625-0.186s-0.439 0.065-0.625 0.186c-0.252 0.161-0.545 0.246-0.845 0.246s-0.592-0.085-0.845-0.246c-0.186-0.122-0.403-0.186-0.625-0.186s-0.439 0.065-0.625 0.186c-0.25 0.166-0.544 0.252-0.845 0.246-0.3 0.006-0.595-0.080-0.845-0.246-0.183-0.127-0.402-0.192-0.625-0.186-0.223-0.006-0.442 0.059-0.625 0.186-0.249 0.166-0.544 0.252-0.843 0.246-0.3 0.006-0.595-0.080-0.845-0.246-0.184-0.127-0.403-0.193-0.627-0.186v-0.432c0.3-0.006 0.595 0.080 0.845 0.246 0.183 0.127 0.403 0.192 0.626 0.186 0.223 0.006 0.442-0.059 0.625-0.186 0.249-0.166 0.544-0.252 0.843-0.246 0.3-0.006 0.595 0.080 0.845 0.246 0.183 0.127 0.403 0.192 0.626 0.186 0.223 0.006 0.442-0.059 0.626-0.186 0.252-0.161 0.545-0.246 0.845-0.246s0.592 0.085 0.845 0.246c0.186 0.122 0.403 0.186 0.625 0.186s0.439-0.065 0.625-0.186c0.252-0.161 0.545-0.246 0.845-0.246s0.592 0.085 0.845 0.246c0.186 0.122 0.403 0.186 0.625 0.186s0.44-0.065 0.625-0.186c0.253-0.161 0.546-0.246 0.845-0.246s0.593 0.085 0.845 0.246c0.186 0.122 0.404 0.186 0.626 0.186s0.44-0.065 0.626-0.186c0.25-0.166 0.545-0.252 0.845-0.246v0.432c-0.224-0.006-0.443 0.059-0.627 0.186-0.25 0.166-0.545 0.252-0.845 0.246z"></path>
<path fill="#fff" style="fill: var(--color2, #fff)" d="M21.879 18.259c-0.3 0.006-0.595-0.080-0.845-0.246-0.183-0.127-0.403-0.192-0.626-0.186-0.164-0.006-0.326 0.029-0.473 0.102l-0.191-0.389c0.206-0.101 0.434-0.151 0.664-0.146 0.3-0.006 0.596 0.080 0.846 0.247 0.186 0.122 0.404 0.187 0.627 0.187s0.441-0.065 0.627-0.187c0.249-0.166 0.544-0.252 0.843-0.246v0.432c-0.223-0.006-0.442 0.059-0.626 0.186-0.25 0.167-0.546 0.253-0.847 0.246z"></path>
<path fill="#fff" style="fill: var(--color2, #fff)" d="M18.936 18.259c-0.3 0.006-0.594-0.080-0.843-0.246-0.186-0.122-0.403-0.186-0.626-0.186s-0.44 0.065-0.626 0.186c-0.252 0.161-0.545 0.246-0.845 0.246s-0.592-0.085-0.845-0.246c-0.186-0.122-0.403-0.186-0.625-0.186s-0.44 0.065-0.626 0.186c-0.25 0.166-0.544 0.252-0.844 0.246-0.3 0.006-0.595-0.080-0.845-0.246-0.183-0.127-0.403-0.192-0.626-0.186-0.222-0.006-0.441 0.059-0.623 0.186-0.25 0.167-0.545 0.253-0.845 0.247-0.3 0.006-0.595-0.080-0.845-0.246-0.183-0.127-0.403-0.192-0.626-0.186v-0.432c0.3-0.006 0.595 0.080 0.845 0.246 0.183 0.127 0.402 0.192 0.626 0.186 0.223 0.006 0.442-0.059 0.626-0.187 0.249-0.166 0.544-0.252 0.843-0.246 0.3-0.006 0.595 0.080 0.845 0.246 0.183 0.127 0.403 0.192 0.626 0.186 0.223 0.006 0.442-0.059 0.626-0.186 0.252-0.161 0.545-0.246 0.845-0.246s0.592 0.085 0.845 0.246c0.186 0.122 0.403 0.186 0.626 0.186s0.44-0.065 0.626-0.186c0.252-0.161 0.546-0.246 0.845-0.246s0.592 0.085 0.845 0.246c0.19 0.128 0.416 0.193 0.646 0.186 0.017 0 0.033-0.001 0.050-0.003l0.057 0.429c-0.043 0.005-0.087 0.007-0.131 0.007z"></path>
<path fill="#fff" style="fill: var(--color2, #fff)" d="M21.88 16.745c-0.3 0.006-0.595-0.080-0.845-0.246-0.186-0.122-0.404-0.186-0.626-0.186s-0.44 0.065-0.626 0.186c-0.252 0.161-0.545 0.246-0.845 0.246s-0.592-0.085-0.845-0.246c-0.186-0.122-0.403-0.186-0.625-0.186s-0.439 0.065-0.625 0.186c-0.252 0.161-0.545 0.246-0.845 0.246s-0.592-0.085-0.845-0.246c-0.186-0.122-0.403-0.186-0.625-0.186s-0.439 0.065-0.625 0.186c-0.25 0.166-0.544 0.252-0.845 0.246-0.3 0.006-0.595-0.080-0.845-0.246-0.183-0.127-0.402-0.192-0.625-0.186-0.223-0.006-0.442 0.059-0.625 0.186-0.249 0.166-0.544 0.252-0.843 0.246-0.3 0.006-0.595-0.080-0.845-0.246-0.184-0.127-0.403-0.193-0.627-0.186v-0.432c0.3-0.006 0.595 0.080 0.845 0.246 0.183 0.127 0.403 0.192 0.626 0.186 0.223 0.006 0.442-0.059 0.625-0.186 0.249-0.166 0.544-0.252 0.843-0.246 0.3-0.006 0.595 0.079 0.845 0.246 0.183 0.127 0.403 0.192 0.626 0.186 0.223 0.006 0.442-0.059 0.626-0.186 0.252-0.161 0.545-0.246 0.845-0.246s0.592 0.085 0.845 0.246c0.186 0.122 0.403 0.186 0.625 0.186s0.439-0.065 0.625-0.186c0.252-0.161 0.545-0.246 0.845-0.246s0.592 0.085 0.845 0.246c0.186 0.122 0.403 0.186 0.625 0.186s0.44-0.065 0.625-0.186c0.253-0.161 0.546-0.246 0.845-0.246s0.593 0.085 0.845 0.246c0.186 0.122 0.404 0.186 0.626 0.186s0.44-0.065 0.626-0.186c0.25-0.166 0.545-0.252 0.845-0.246v0.432c-0.224-0.006-0.443 0.059-0.627 0.186-0.25 0.166-0.545 0.252-0.845 0.246z"></path>
<path fill="#fff" style="fill: var(--color2, #fff)" d="M18.798 16.562l-0.408-0.143c0.105-0.302 0.148-0.622 0.126-0.941s-0.108-0.63-0.253-0.915l-1.485-2.908c-0.015-0.029-0.023-0.060-0.024-0.093s0.005-0.064 0.019-0.094 0.033-0.056 0.057-0.077c0.025-0.021 0.053-0.036 0.085-0.044l2.96-0.789c0.096-0.025 0.179-0.087 0.23-0.173s0.066-0.188 0.041-0.285c-0.024-0.097-0.086-0.18-0.171-0.231s-0.188-0.067-0.284-0.044l-3.582 0.856c-0.077 0.018-0.148 0.054-0.209 0.104s-0.109 0.114-0.141 0.185c-0.032 0.072-0.047 0.15-0.045 0.229s0.024 0.156 0.061 0.225l1.064 1.976c0.027 0.050 0.033 0.109 0.017 0.164s-0.053 0.101-0.103 0.128l-1.373 0.757-0.209-0.379 1.185-0.653-0.961-1.788c-0.069-0.128-0.107-0.269-0.113-0.414s0.023-0.289 0.082-0.421c0.059-0.132 0.148-0.249 0.26-0.341s0.243-0.158 0.384-0.191l3.581-0.856c0.208-0.053 0.429-0.020 0.614 0.090s0.318 0.289 0.371 0.498c0.053 0.208 0.020 0.429-0.090 0.614s-0.289 0.318-0.498 0.371l-2.701 0.72 1.364 2.67c0.172 0.337 0.274 0.705 0.299 1.083s-0.025 0.756-0.15 1.113z"></path>
<path fill="#fff" style="fill: var(--color2, #fff)" d="M14.415 14.489l-2.628 1.448 0.209 0.379 2.628-1.448-0.209-0.379z"></path>
<path fill="#fff" style="fill: var(--color2, #fff)" d="M20.757 15.123c-0.321 0-0.634-0.095-0.901-0.273s-0.474-0.431-0.597-0.728c-0.123-0.296-0.155-0.622-0.092-0.937s0.217-0.604 0.444-0.83c0.227-0.227 0.516-0.381 0.83-0.444s0.641-0.030 0.937 0.092c0.296 0.123 0.55 0.331 0.728 0.597s0.273 0.58 0.273 0.901c-0 0.43-0.171 0.842-0.475 1.146s-0.716 0.475-1.146 0.475zM20.757 12.312c-0.235 0-0.465 0.070-0.661 0.2s-0.348 0.316-0.438 0.534c-0.090 0.217-0.114 0.456-0.068 0.687s0.159 0.443 0.325 0.609c0.166 0.166 0.378 0.28 0.609 0.325s0.47 0.022 0.687-0.068c0.217-0.090 0.403-0.242 0.534-0.438s0.2-0.425 0.2-0.661c-0-0.315-0.126-0.618-0.349-0.84s-0.525-0.348-0.84-0.349z"></path>
</symbol>
</defs>
</svg>
