<svg aria-hidden="true" style="position: absolute; width: 0; height: 0; overflow: hidden;" version="1.1" xmlns="http://www.w3.org/2000/svg" xmlns:xlink="http://www.w3.org/1999/xlink">
<defs>
<symbol id="app-store" viewBox="0 0 91 32">
<path fill="#080809" style="fill: var(--color1, #080809)" d="M16 0h59.429c8.837 0 16 7.163 16 16s-7.163 16-16 16h-59.429c-8.837 0-16-7.163-16-16s7.163-16 16-16z"></path>
<path fill="#fff" style="fill: var(--color2, #fff)" d="M19.922 21.943c-2.177-0.013-3.978-4.457-3.978-6.72 0-3.697 2.774-4.507 3.843-4.507 0.482 0 0.996 0.189 1.45 0.357 0.317 0.117 0.645 0.237 0.828 0.237 0.109 0 0.367-0.102 0.594-0.193 0.485-0.193 1.088-0.433 1.79-0.433 0.001 0 0.003 0 0.004 0 0.524 0 2.114 0.115 3.070 1.551l0.224 0.337-0.322 0.243c-0.46 0.347-1.3 0.981-1.3 2.236 0 1.487 0.951 2.058 1.408 2.333 0.202 0.121 0.41 0.247 0.41 0.52 0 0.179-1.426 4.016-3.498 4.016-0.507 0-0.865-0.152-1.181-0.287-0.32-0.136-0.596-0.253-1.051-0.253-0.231 0-0.523 0.109-0.832 0.225-0.423 0.158-0.901 0.337-1.444 0.337h-0.014z"></path>
<path fill="#fff" style="fill: var(--color2, #fff)" d="M24.667 7.314c0.054 1.945-1.337 3.294-2.726 3.21-0.229-1.552 1.389-3.21 2.726-3.21z"></path>
<path fill="#fff" style="fill: var(--color2, #fff)" d="M35.685 11.886h0.96l-1.306-3.84h-1.119l-1.306 3.84h0.96l0.192-0.603h1.426l0.192 0.603zM34.33 10.46l0.45-1.41 0.45 1.41h-0.9z"></path>
<path fill="#fff" style="fill: var(--color2, #fff)" d="M38.587 9.143l-0.571 1.739-0.571-1.739h-0.911l1.015 2.743h0.933l1.015-2.743h-0.911z"></path>
<path fill="#fff" style="fill: var(--color2, #fff)" d="M41.684 9.143v0.258c-0.181-0.208-0.45-0.335-0.817-0.335-0.719 0-1.311 0.631-1.311 1.448s0.592 1.448 1.311 1.448c0.368 0 0.636-0.126 0.817-0.335v0.258h0.823v-2.743h-0.823zM41.031 11.184c-0.379 0-0.653-0.258-0.653-0.669s0.274-0.669 0.653-0.669c0.379 0 0.653 0.258 0.653 0.669s-0.274 0.669-0.653 0.669z"></path>
<path fill="#fff" style="fill: var(--color2, #fff)" d="M43.111 11.886h0.823v-4.005h-0.823v4.005z"></path>
<path fill="#fff" style="fill: var(--color2, #fff)" d="M44.947 8.902c0.269 0 0.494-0.225 0.494-0.494s-0.225-0.494-0.494-0.494c-0.269 0-0.494 0.225-0.494 0.494s0.225 0.494 0.494 0.494zM44.536 11.886h0.823v-2.743h-0.823v2.743z"></path>
<path fill="#fff" style="fill: var(--color2, #fff)" d="M47.601 9.066c-0.368 0-0.636 0.126-0.817 0.335v-1.355h-0.823v3.84h0.823v-0.258c0.181 0.208 0.45 0.335 0.817 0.335 0.719 0 1.311-0.631 1.311-1.448s-0.592-1.448-1.311-1.448zM47.436 11.184c-0.379 0-0.653-0.258-0.653-0.669s0.274-0.669 0.653-0.669c0.379 0 0.653 0.258 0.653 0.669s-0.274 0.669-0.653 0.669z"></path>
<path fill="#fff" style="fill: var(--color2, #fff)" d="M49.378 11.886h0.823v-4.005h-0.823v4.005z"></path>
<path fill="#fff" style="fill: var(--color2, #fff)" d="M51.539 10.844h1.947c0.022-0.104 0.033-0.214 0.033-0.329 0-0.828-0.592-1.448-1.393-1.448-0.867 0-1.459 0.631-1.459 1.448s0.581 1.448 1.52 1.448c0.521 0 0.927-0.192 1.196-0.565l-0.658-0.379c-0.11 0.121-0.302 0.208-0.527 0.208-0.302 0-0.554-0.099-0.658-0.384zM51.522 10.229c0.077-0.28 0.285-0.433 0.598-0.433 0.247 0 0.494 0.115 0.581 0.433h-1.179z"></path>
<path fill="#fff" style="fill: var(--color2, #fff)" d="M56.674 11.963c0.806 0 1.454-0.631 1.454-1.448s-0.647-1.448-1.454-1.448c-0.806 0-1.454 0.631-1.454 1.448s0.647 1.448 1.454 1.448zM56.674 11.162c-0.357 0-0.631-0.258-0.631-0.647s0.274-0.647 0.631-0.647c0.357 0 0.631 0.258 0.631 0.647s-0.274 0.647-0.631 0.647z"></path>
<path fill="#fff" style="fill: var(--color2, #fff)" d="M60.2 9.066c-0.362 0-0.636 0.132-0.784 0.335v-0.258h-0.823v2.743h0.823v-1.498c0-0.389 0.208-0.565 0.51-0.565 0.263 0 0.477 0.159 0.477 0.499v1.563h0.823v-1.684c0-0.741-0.472-1.136-1.026-1.136z"></path>
<path fill="#fff" style="fill: var(--color2, #fff)" d="M64.77 9.933v-0.79h-0.565v-0.768l-0.823 0.247v0.521h-0.439v0.79h0.439v0.971c0 0.768 0.313 1.092 1.388 0.982v-0.746c-0.362 0.022-0.565 0-0.565-0.236v-0.971h0.565z"></path>
<path fill="#fff" style="fill: var(--color2, #fff)" d="M66.843 9.066c-0.362 0-0.636 0.132-0.784 0.335v-1.355h-0.823v3.84h0.823v-1.498c0-0.389 0.208-0.565 0.51-0.565 0.263 0 0.477 0.159 0.477 0.499v1.563h0.823v-1.684c0-0.741-0.472-1.136-1.026-1.136z"></path>
<path fill="#fff" style="fill: var(--color2, #fff)" d="M69.169 10.844h1.947c0.022-0.104 0.033-0.214 0.033-0.329 0-0.828-0.592-1.448-1.393-1.448-0.867 0-1.459 0.631-1.459 1.448s0.582 1.448 1.52 1.448c0.521 0 0.927-0.192 1.196-0.565l-0.658-0.379c-0.11 0.121-0.302 0.208-0.527 0.208-0.302 0-0.554-0.099-0.658-0.384zM69.152 10.229c0.077-0.28 0.285-0.433 0.598-0.433 0.247 0 0.494 0.115 0.582 0.433h-1.179z"></path>
<path fill="#fff" style="fill: var(--color2, #fff)" d="M37.531 21.943h1.6l-2.176-6.4h-1.865l-2.176 6.4h1.6l0.32-1.006h2.377l0.32 1.006zM35.273 19.566l0.75-2.35 0.75 2.35h-1.499z"></path>
<path fill="#fff" style="fill: var(--color2, #fff)" d="M42.365 17.244c-0.613 0-1.061 0.21-1.362 0.558v-0.43h-1.371v6.4h1.371v-2.258c0.302 0.347 0.75 0.558 1.362 0.558 1.198 0 2.185-1.051 2.185-2.414s-0.987-2.414-2.185-2.414zM42.091 20.773c-0.631 0-1.088-0.43-1.088-1.115s0.457-1.115 1.088-1.115c0.631 0 1.088 0.43 1.088 1.115s-0.457 1.115-1.088 1.115z"></path>
<path fill="#fff" style="fill: var(--color2, #fff)" d="M48.062 17.244c-0.613 0-1.061 0.21-1.362 0.558v-0.43h-1.371v6.4h1.371v-2.258c0.302 0.347 0.75 0.558 1.362 0.558 1.198 0 2.185-1.051 2.185-2.414s-0.987-2.414-2.185-2.414zM47.787 20.773c-0.631 0-1.088-0.43-1.088-1.115s0.457-1.115 1.088-1.115c0.631 0 1.088 0.43 1.088 1.115s-0.457 1.115-1.088 1.115z"></path>
<path fill="#fff" style="fill: var(--color2, #fff)" d="M51.024 21.943h1.371v-6.674h-1.371v6.674z"></path>
<path fill="#fff" style="fill: var(--color2, #fff)" d="M54.624 20.206h3.246c0.037-0.174 0.055-0.357 0.055-0.549 0-1.381-0.987-2.414-2.322-2.414-1.445 0-2.432 1.051-2.432 2.414s0.969 2.414 2.533 2.414c0.869 0 1.545-0.32 1.993-0.942l-1.097-0.631c-0.183 0.201-0.503 0.347-0.878 0.347-0.503 0-0.923-0.165-1.097-0.64zM54.597 19.182c0.128-0.466 0.475-0.722 0.997-0.722 0.411 0 0.823 0.192 0.969 0.722h-1.966z"></path>
<path fill="#fff" style="fill: var(--color2, #fff)" d="M63.274 22.071c1.39 0 2.377-0.731 2.377-1.966 0-1.353-1.088-1.691-2.057-1.984-0.997-0.302-1.152-0.503-1.152-0.795 0-0.256 0.229-0.485 0.686-0.485 0.585 0 0.887 0.283 1.106 0.741l1.234-0.722c-0.466-0.942-1.289-1.445-2.341-1.445-1.106 0-2.148 0.713-2.148 1.947 0 1.225 0.932 1.682 1.883 1.947 0.96 0.265 1.326 0.421 1.326 0.814 0 0.247-0.174 0.521-0.869 0.521-0.722 0-1.115-0.357-1.344-0.887l-1.262 0.731c0.357 0.942 1.216 1.582 2.56 1.582z"></path>
<path fill="#fff" style="fill: var(--color2, #fff)" d="M68.882 18.688v-1.317h-0.942v-1.28l-1.371 0.411v0.869h-0.731v1.317h0.731v1.618c0 1.28 0.521 1.819 2.313 1.637v-1.243c-0.603 0.037-0.942 0-0.942-0.393v-1.618h0.942z"></path>
<path fill="#fff" style="fill: var(--color2, #fff)" d="M71.763 22.071c1.344 0 2.423-1.051 2.423-2.414s-1.079-2.414-2.423-2.414c-1.344 0-2.423 1.051-2.423 2.414s1.079 2.414 2.423 2.414zM71.763 20.736c-0.594 0-1.051-0.43-1.051-1.079s0.457-1.079 1.051-1.079c0.594 0 1.051 0.43 1.051 1.079s-0.457 1.079-1.051 1.079z"></path>
<path fill="#fff" style="fill: var(--color2, #fff)" d="M76.333 18.185v-0.814h-1.371v4.571h1.371v-2.066c0-0.905 0.805-1.134 1.371-1.042v-1.554c-0.576 0-1.189 0.293-1.371 0.905z"></path>
<path fill="#fff" style="fill: var(--color2, #fff)" d="M79.437 20.206h3.246c0.037-0.174 0.055-0.357 0.055-0.549 0-1.381-0.987-2.414-2.322-2.414-1.445 0-2.432 1.051-2.432 2.414s0.969 2.414 2.533 2.414c0.869 0 1.545-0.32 1.993-0.942l-1.097-0.631c-0.183 0.201-0.503 0.347-0.878 0.347-0.503 0-0.923-0.165-1.097-0.64zM79.409 19.182c0.128-0.466 0.475-0.722 0.997-0.722 0.411 0 0.823 0.192 0.969 0.722h-1.966z"></path>
</symbol>
<symbol id="facebook" viewBox="0 0 32 32">
<path fill="#fff" style="fill: var(--color2, #fff)" d="M16 25.705c5.939 0 10.754-4.815 10.754-10.754s-4.815-10.754-10.754-10.754c-5.939 0-10.754 4.815-10.754 10.754s4.815 10.754 10.754 10.754z"></path>
<path fill="#080809" style="fill: var(--color1, #080809)" d="M17.368 13.768c-0.168-0.053-0.361-0.089-0.537-0.089-0.218 0-0.688 0.15-0.688 0.443v0.699h1.117v1.177h-1.117v3.249h-1.125v-3.249h-0.554v-1.177h0.554v-0.593c0-0.894 0.386-1.638 1.318-1.638 0.319 0 0.89 0.018 1.2 0.133l-0.168 1.045z"></path>
</symbol>
<symbol id="insta" viewBox="0 0 32 32">
<path fill="#fff" style="fill: var(--color2, #fff)" d="M16 25.705c5.939 0 10.754-4.815 10.754-10.754s-4.815-10.754-10.754-10.754c-5.939 0-10.754 4.815-10.754 10.754s4.815 10.754 10.754 10.754z"></path>
<path fill="#080809" style="fill: var(--color1, #080809)" d="M17.368 13.768c-0.168-0.053-0.361-0.089-0.537-0.089-0.218 0-0.688 0.15-0.688 0.443v0.699h1.117v1.177h-1.117v3.249h-1.125v-3.249h-0.554v-1.177h0.554v-0.593c0-0.894 0.386-1.638 1.318-1.638 0.319 0 0.89 0.018 1.2 0.133l-0.168 1.045z"></path>
</symbol>
<symbol id="twitter" viewBox="0 0 32 32">
<path fill="#fff" style="fill: var(--color2, #fff)" d="M16 25.705c5.939 0 10.754-4.815 10.754-10.754s-4.815-10.754-10.754-10.754c-5.939 0-10.754 4.815-10.754 10.754s4.815 10.754 10.754 10.754z"></path>
<path fill="#080809" style="fill: var(--color1, #080809)" d="M19.934 12.348c-0.312 0.137-0.645 0.228-0.991 0.272 0.357-0.213 0.629-0.548 0.757-0.951-0.333 0.198-0.7 0.338-1.091 0.417-0.316-0.336-0.766-0.545-1.257-0.545-0.953 0-1.72 0.773-1.72 1.721 0 0.136 0.012 0.268 0.040 0.392-1.431-0.070-2.696-0.755-3.547-1.8-0.148 0.258-0.236 0.552-0.236 0.87 0 0.596 0.307 1.124 0.764 1.43-0.276-0.005-0.548-0.085-0.777-0.212 0 0.005 0 0.012 0 0.019 0 0.836 0.596 1.531 1.379 1.691-0.14 0.038-0.293 0.057-0.451 0.057-0.11 0-0.221-0.006-0.326-0.029 0.223 0.681 0.856 1.182 1.608 1.199-0.585 0.458-1.329 0.734-2.133 0.734-0.141 0-0.276-0.006-0.412-0.024 0.762 0.492 1.666 0.772 2.64 0.772 3.166 0 4.898-2.623 4.898-4.897 0-0.076-0.003-0.149-0.006-0.222 0.341-0.242 0.628-0.545 0.862-0.893z"></path>
</symbol>
</defs>
</svg>
